{"title":"GirlsDoPorn - E163 - 19YearsOld","uid":10816748,"size":1389569119,"categoryP":"porn","categoryS":"movie_clips","magnet":"?xt=urn:btih:3a74f990a6de29247a8d0244b4ea15e18e72a9aa&amp;dn=GirlsDoPorn+-+E163+-+19YearsOld&amp;tr=udp%3A%2F%2Ftracker.openbittorrent.com%3A80&amp;tr=udp%3A%2F%2Fopen.demonii.com%3A1337&amp;tr=udp%3A%2F%2Ftracker.coppersurfer.tk%3A6969&amp;tr=udp%3A%2F%2Fexodus.desync.com%3A6969","seeders":0,"leechers":1,"uploader":"ThousandPeers","files":-1,"time":1408470667,"description":"Format                                   : Windows Media\nFile size                                : 1.29 GiB\nDuration                                 : 36mn 9s\nOverall bit rate mode                    : Variable\nOverall bit rate                         : 5 122 Kbps\nMaximum Overall bit rate                 : 5 465 Kbps\nEncoded date                             : UTC 2012-06-22 11:29:55.729\n\nVideo\nID                                       : 2\nFormat                                   : VC-1\nFormat profile                           : MP@HL\nCodec ID                                 : WMV3\nCodec ID/Info                            : Windows Media Video 9\nCodec ID/Hint                            : WMV3\nDescription of the codec                 : Windows Media Video 9 - Professional\nDuration                                 : 36mn 9s\nBit rate mode                            : Variable\nBit rate                                 : 5 000 Kbps\nWidth                                    : 1 280 pixels\nHeight                                   : 720 pixels\nDisplay aspect ratio                     : 16:9\nFrame rate                               : 29.970 fps\nBit depth                                : 8 bits\nScan type                                : Progressive\nCompression mode                         : Lossy\nBits/(Pixel*Frame)                       : 0.181\nStream size                              : 1.26 GiB (98%)\nNumberOfFrames                           : 64991\n\nAudio\nID                                       : 1\nFormat                                   : WMA\nFormat version                           : Version 2\nCodec ID                                 : 161\nCodec ID/Info                            : Windows Media Audio\nDescription of the codec                 : Windows Media Audio 9.2 -  96 kbps, 48 kHz, stereo 2-pass VBR\nDuration                                 : 36mn 9s\nBit rate mode                            : Variable\nBit rate                                 : 96.1 Kbps\nChannel(s)                               : 2 channels\nSampling rate                            : 48.0 KHz\nBit depth                                : 16 bits\nStream size                              : 24.8 MiB (2%)\n","torrent":{"xt":"urn:btih:3a74f990a6de29247a8d0244b4ea15e18e72a9aa","amp;dn":"GirlsDoPorn+-+E163+-+19YearsOld","amp;tr":["udp%3A%2F%2Ftracker.openbittorrent.com%3A80","udp%3A%2F%2Fopen.demonii.com%3A1337","udp%3A%2F%2Ftracker.coppersurfer.tk%3A6969","udp%3A%2F%2Fexodus.desync.com%3A6969"],"infoHash":"3a74f990a6de29247a8d0244b4ea15e18e72a9aa","infoHashBuffer":{"type":"Buffer","data":[58,116,249,144,166,222,41,36,122,141,2,68,180,234,21,225,142,114,169,170]},"announce":[],"urlList":[]}}